<svg version="1" xmlns="http://www.w3.org/2000/svg" width="533.333" height="533.333" viewBox="0 0 400.000000 400.000000"><path d="M316.5 64.1c-19.4 2.5-31.8 10.7-38.8 25.8-5.8 12.4-4.8 29.9 2.5 41.3 7 11.1 18.5 18.8 43.9 29.6 27.2 11.5 35.1 18.7 35.1 32.1 0 8.2-2 13.6-6.9 19.2-6.5 7.1-13.5 10.2-24.5 10.7-9.9.5-19.3-1-25.3-4-8.2-4.1-10.1-7.2-11.9-19.8-3.1-20.7-13.5-29.5-37.9-32.1-16.5-1.8-34.3 1.1-45.2 7.5-6 3.6-12.2 10.8-15.8 18.4-5.9 12.5-4.8 30 2.5 41.4 7 11.1 18.5 18.8 43.9 29.6 27.2 11.5 35.1 18.7 35.1 32.1 0 8.2-2 13.6-6.9 19.2-6.5 7.1-13.5 10.2-24.5 10.7-10.3.5-19.3-1-25.9-4.4-7-3.5-9.1-6.8-11.4-17.7l-.5-2.7H182.7l.6 5.9c1.8 17 13.5 29.1 32.4 33.8 8.8 2.2 35.3 2.4 43.3.4 13.5-3.3 24.2-11.3 30.5-22.6 10.9-19.4 7.7-40.9-8-55.4-7-6.3-13.7-10.1-34.8-19.5-20.6-9.2-24.6-11.6-30-17.6-9.1-10.1-9-23.7.2-34.2 5.2-6 11.8-8.2 24.1-8.3 12.8 0 18.2 1.5 23.1 6.3 3.3 3.3 3.7 4.5 4.8 12.1 2.9 19.9 13 30.9 32.8 35.8 8.8 2.2 35.3 2.4 43.3.4 13.5-3.3 24.2-11.3 30.5-22.6 10.9-19.4 7.7-40.9-8-55.4-7-6.3-13.7-10.1-34.8-19.5-20.6-9.2-24.6-11.6-30-17.6-9.1-10.1-9-23.7.2-34.2 5.2-6 11.8-8.2 24.1-8.3 5.8 0 12.4.6 14.8 1.3 5.8 1.7 10.9 6.5 12.2 11.3l1.1 3.9h21.2l-.5-4.8c-1.1-11-9.8-21.4-21.2-25.2-10.8-3.6-24.4-4.6-38.1-2.9zM20 69.5c0 .8 8.3 38.2 18.5 83.1 10.2 44.9 18.5 81.8 18.5 82 0 .3 5 .3 11.2.2l11.1-.3L95 175c8.5-32.7 16.4-64.1 17.5-69.8 1-5.6 2.2-9.9 2.5-9.5.4.5 1.5 4.8 2.4 9.8 1 4.9 8.7 35.9 17.2 68.8s15.4 60 15.4 60.3c0 .2 5 .3 11.2.2l11.2-.3 18.7-80.5c10.3-44.3 19-81.7 19.3-83.3l.6-2.7h-9.5c-9 0-9.5.1-10 2.2-9.9 42.1-26.3 113.4-28.1 122.7-1.3 6.8-2.6 12.6-2.8 12.8-.2.2-1.2-4-2.1-9.4-1-5.4-8.5-36.3-16.6-68.8-8.2-32.4-14.9-59.1-14.9-59.2 0-.7-20.9-.2-21.4.5-1.1 1.9-30.7 117.2-32.3 125.7-.8 4.9-1.9 9.6-2.3 10.3-.3.7-1.2-2-1.9-6C68 192.3 41.7 74.1 40.4 69.7c-.5-1.5-1.9-1.7-10.5-1.7-8.1 0-9.9.3-9.9 1.5z"/></svg>